<svg xmlns="http://www.w3.org/2000/svg" viewBox="0 0 100 100" fill="none"><rect x="17" y="23" width="66" height="54" rx="5" fill="#26364b" stroke="#c1f27a" stroke-width="2"/><rect x="25" y="31" width="36" height="37" rx="3" fill="#192438" stroke="#60724c"/><circle cx="43" cy="49" r="12" stroke="#91a66b" stroke-width="2"/><circle cx="43" cy="49" r="3" fill="#c1f27a"/><path d="M43 37c4 4 4 7 0 12 6-1 10-4 11-8m1 8c-4 4-7 4-12 0 1 6 4 10 8 11m-8 1c-4-4-4-7 0-12-6 1-10 4-11 8m-1-8c4-4 7-4 12 0-1-6-4-10-8-11" fill="#60724c"/><path d="M68 39h8m-8 8h8m-8 8h8" stroke="#c1f27a" stroke-width="2" stroke-linecap="round"/><path d="M30 77v6m8-6v6m8-6v6m8-6v6m8-6v6m8-6v6" stroke="#c1f27a" stroke-width="2"/></svg>
